PathFileType	3	(X/Y/Z)	F:\ViconData\AntennenMessung\Messung1\Session1\ID01.trc
DataRate	CameraRate	NumFrames	NumMarkers	Units	OrigDataRate	OrigDataStartFrame	OrigNumFrames
120.0	120.0	5	70	mm	120.0	718	957	
Frame#	Time	Ashort			Along			Atop			A4			Bshort			Blong			Btop			B4			Cshort			Clong			Ctop			C4			Dshort			Dlong			Dtop			D4			Eshort			Elong			Etop			E4			Fshort			Flong			Ftop			F4			Gshort			Glong			Gtop			G4			Hshort			Hlong			Htop			H4			I1			I2			I3			I4			I5			WandAshort			WandAlong			WandAtop			WandA4			WandA15			WandBshort			WandB4			WandB5			WandBtop			WandBlong			WandCshort			WandClong			WandCtop			WandC4			WandC5			Acenter			Aantenna			Bcenter			Bantenna			Ccenter			Cantenna			Dcenter			Dantenna			Ecenter			Eantenna			Fcenter			Fantenna			Gcenter			Gantenna			Hcenter			Hantenna			Icenter			Iantenna			
		X1	Y1	Z1	X2	Y2	Z2	X3	Y3	Z3	X4	Y4	Z4	X5	Y5	Z5	X6	Y6	Z6	X7	Y7	Z7	X8	Y8	Z8	X9	Y9	Z9	X10	Y10	Z10	X11	Y11	Z11	X12	Y12	Z12	X13	Y13	Z13	X14	Y14	Z14	X15	Y15	Z15	X16	Y16	Z16	X17	Y17	Z17	X18	Y18	Z18	X19	Y19	Z19	X20	Y20	Z20	X21	Y21	Z21	X22	Y22	Z22	X23	Y23	Z23	X24	Y24	Z24	X25	Y25	Z25	X26	Y26	Z26	X27	Y27	Z27	X28	Y28	Z28	X29	Y29	Z29	X30	Y30	Z30	X31	Y31	Z31	X32	Y32	Z32	X33	Y33	Z33	X34	Y34	Z34	X35	Y35	Z35	X36	Y36	Z36	X37	Y37	Z37	X38	Y38	Z38	X39	Y39	Z39	X40	Y40	Z40	X41	Y41	Z41	X42	Y42	Z42	X43	Y43	Z43	X44	Y44	Z44	X45	Y45	Z45	X46	Y46	Z46	X47	Y47	Z47	X48	Y48	Z48	X49	Y49	Z49	X50	Y50	Z50	X51	Y51	Z51	X52	Y52	Z52	X53	Y53	Z53	X54	Y54	Z54	X55	Y55	Z55	X56	Y56	Z56	X57	Y57	Z57	X58	Y58	Z58	X59	Y59	Z59	X60	Y60	Z60	X61	Y61	Z61	X62	Y62	Z62	X63	Y63	Z63	X64	Y64	Z64	X65	Y65	Z65	X66	Y66	Z66	X67	Y67	Z67	X68	Y68	Z68	X69	Y69	Z69	X70	Y70	Z70	
718	5.975	-1038.2412	214.42247	-1644.2157	-1109.2679	203.42181	-1599.62	-1063.4247	172.95557	-1625.8877	-1054.131	262.03171	-1634.937	-1353.1531	235.10414	1004.053	-1281.2531	227.09917	1052.4084	-1323.1234	194.2106	1020.8585	-1284.5426	287.90454	1052.8325	814.21008	187.33167	1209.2823	892.34735	178.38403	1179.205	844.59332	145.34807	1198.1113	860.67474	292.2912	1167.2196	1115.851	209.79688	-1401.7349	1056.2979	194.18449	-1460.2458	1095.0809	162.45337	-1423.9958	1069.9208	238.65392	-1425.9363	-1204.5752	1686.0128	-1563.116	-1129.1292	1688.3315	-1606.562	-1173.0881	1724.4176	-1581.9958	-1133.5697	1581.1479	-1603.5897	-1239.6855	1699.3079	1119.2428	-1309.1162	1698.4952	1071.6277	-1270.3345	1736.2406	1096.66	-1244.606	1593.9303	1106.3563	988.92041	1664.2841	1162.3127	957.44312	1700.339	1183.7133	921.77905	1662.3557	1214.8149	939.79779	1659.3845	1159.9766	999.25623	1668.5605	-1579.465	1058.9825	1670.1671	-1518.6449	1025.1155	1708.004	-1551.1331	1059.3414	1672.2177	-1585.6373	-545.06616	141.65001	-348.89539	-539.2876	147.33044	-432.44379	-573.75116	143.80688	-386.66229	-495.09528	141.93962	-383.01343	-541.62927	107.23393	-389.5687																																														-1068.6411	209.71411	-1625.1284	-1074.1196	248.31918	-1624.3309	-1321.8259	231.61633	1025.1216	-1320.4828	270.3425	1029.5353	848.21637	183.43755	1196.1923	851.9046	222.21355	1194.2386	1088.785	202.70131	-1428.3269	1082.7915	241.01677	-1432.4503	-1171.9015	1687.017	-1581.9313	-1170.6648	1648.0366	-1581.8639	-1270.7671	1698.9441	1097.9272	-1271.219	1659.9692	1099.2515	952.64813	1705.8311	1186.9731	972.6626	1734.019	1168.9215	1026.626	1669.2966	-1551.5939	1028.1467	1630.329	-1552.0579	-542.60425	144.07007	-384.49017	-503.70013	144.39882	-381.77701
719	5.9833333	-1038.1648	214.26402	-1644.2336	-1109.2599	203.40872	-1599.6373	-1063.7396	172.4986	-1625.1788	-1054.1154	262.04556	-1634.9478	-1353.0409	235.13683	1003.9982	-1281.2437	227.05338	1052.3522	-1323.1355	194.2383	1020.8083	-1284.4656	287.91199	1052.7023	814.12079	187.50774	1209.355	892.41504	178.47328	1179.2042	844.60846	145.34438	1198.156	860.55157	292.50766	1167.1895	1115.8483	209.79805	-1401.715	1056.3221	194.24347	-1460.2716	1095.0547	162.26668	-1423.8745	1069.9298	238.65047	-1425.9204	-1204.6036	1686.0352	-1563.0894	-1129.115	1688.3103	-1606.5275	-1173.075	1724.3978	-1582.0071	-1133.527	1581.1245	-1603.5322	-1239.6412	1699.2396	1119.223	-1309.2731	1698.751	1071.718	-1270.3157	1736.2073	1096.642	-1244.6014	1594.0096	1106.4659	988.89581	1664.2545	1162.2858	957.11688	1700.6168	1183.6803	921.94269	1662.2828	1214.7649	939.80695	1659.3925	1159.9796	999.25616	1668.5453	-1579.4517	1058.9723	1670.1774	-1518.6414	1025.1141	1708.0182	-1551.1361	1059.3486	1672.2294	-1585.6573	-544.91864	141.4088	-348.79736	-539.27692	147.32628	-432.45901	-573.70312	143.53912	-386.78079	-495.08676	141.94519	-383.00888	-541.58557	107.25352	-389.59753																																														-1069.1534	209.53241	-1624.7949	-1074.7946	248.12022	-1624.3951	-1321.7833	231.6176	1025.0496	-1320.3824	270.34396	1029.4435	848.26782	183.56744	1196.2051	851.9798	222.33995	1194.2263	1088.828	202.73747	-1428.295	1082.9316	241.06122	-1432.4812	-1171.8936	1687.0209	-1581.9116	-1170.6615	1648.0405	-1581.812	-1270.9073	1699.0201	1097.8921	-1271.5277	1660.047	1099.2021	952.68652	1705.6859	1186.663	972.61829	1733.8248	1168.4441	1026.6254	1669.2932	-1551.5808	1028.1461	1630.3254	-1552.0283	-542.50104	143.94455	-384.64801	-503.59512	144.45007	-381.98859
720	5.9916667	-1038.2321	214.33694	-1644.1605	-1109.1593	203.24428	-1599.7371	-1063.7351	172.75111	-1625.3571	-1054.1058	262.05634	-1634.9291	-1353.0256	234.89256	1003.9702	-1281.3123	227.07332	1052.4185	-1323.1431	194.21716	1020.8086	-1284.5343	287.92529	1052.7474	814.1496	187.46951	1209.344	892.16315	178.38403	1179.2549	844.31342	145.60478	1198.1427	860.67053	292.2771	1167.0669	1115.8651	209.82506	-1401.7439	1056.2578	194.15314	-1460.2075	1095.0516	162.25284	-1423.8662	1069.9152	238.64748	-1425.9189	-1204.6061	1686.0415	-1563.0858	-1129.1155	1688.1699	-1605.9873	-1173.0686	1724.41	-1582.002	-1133.4985	1581.1049	-1603.5193	-1239.6678	1699.2861	1119.2539	-1309.3044	1698.7626	1071.723	-1270.2896	1736.1687	1096.6375	-1244.6136	1593.9316	1106.4193	988.89185	1664.2396	1162.2983	957.41217	1700.3704	1183.6055	921.85596	1662.2889	1214.7701	939.80261	1659.3662	1159.9502	999.26953	1668.5669	-1579.4631	1058.9751	1670.1689	-1518.6359	1025.1169	1707.9979	-1551.1429	1059.3356	1672.2167	-1585.6398	-544.92096	141.40118	-348.80255	-539.28833	147.34676	-432.45981	-573.60425	143.3318	-386.8493	-495.17444	142.2765	-383.51227	-541.62036	107.23799	-389.51266																																														-1069.1367	209.5036	-1624.8041	-1074.8071	248.08481	-1624.2238	-1321.9056	231.4994	1024.9943	-1320.6202	270.23486	1029.343	848.01263	183.5258	1196.2833	851.79462	222.29543	1194.3824	1088.7771	202.70306	-1428.312	1082.8339	241.01685	-1432.5231	-1171.8438	1686.9651	-1581.7045	-1170.569	1647.9873	-1581.395	-1270.8977	1699.0513	1097.9376	-1271.5365	1660.0803	1099.3026	952.7489	1705.7224	1186.7616	972.75909	1733.8555	1168.6199	1026.6198	1669.3008	-1551.5989	1028.1333	1630.3329	-1552.0581	-542.50323	143.95322	-384.71112	-503.60281	144.73051	-382.03671
721	6	-1038.2207	214.22662	-1644.2345	-1109.2278	203.47736	-1599.6636	-1063.6876	172.7972	-1625.3439	-1054.1212	262.07538	-1634.9569	-1352.913	235.17239	1003.976	-1281.2686	227.11304	1052.3958	-1323.1494	194.17711	1020.8484	-1284.5126	287.93466	1052.787	814.14142	187.52745	1209.4091	892.43231	178.49203	1179.168	844.51215	145.35664	1198.2006	860.52209	292.42642	1167.2352	1115.8455	209.81447	-1401.7361	1056.2684	194.1691	-1460.2485	1095.0068	162.20807	-1423.8364	1069.9191	238.63954	-1425.9229	-1204.5011	1685.941	-1563.281	-1129.1083	1688.1819	-1606.0148	-1173.0775	1724.402	-1582.014	-1133.4731	1581.085	-1603.4879	-1239.6604	1699.2722	1119.2352	-1309.2979	1698.7673	1071.726	-1270.2881	1736.1736	1096.6362	-1244.6255	1594.0474	1106.4426	988.90924	1664.2489	1162.2944	957.41815	1700.4039	1183.6134	921.68176	1662.4269	1214.8025	939.83002	1659.3735	1159.9069	999.25903	1668.5634	-1579.459	1058.9751	1670.1692	-1518.6429	1025.1185	1708.0028	-1551.1432	1059.3483	1672.2386	-1585.6376	-544.93781	141.40787	-348.8186	-539.27777	147.3284	-432.46277	-573.61047	143.31628	-386.85632	-495.15546	142.25218	-383.54077	-541.63763	107.13228	-389.59769																																														-1068.9889	209.5688	-1624.9213	-1074.5537	248.16722	-1624.4778	-1321.7588	231.66782	1025.031	-1320.322	270.40103	1029.3522	848.17694	183.59946	1196.2622	851.89258	222.37228	1194.297	1088.7765	202.70596	-1428.3214	1082.8816	241.02364	-1432.5648	-1171.8386	1686.9117	-1581.7946	-1170.5508	1647.9336	-1581.5662	-1270.8975	1699.0457	1097.924	-1271.5374	1660.0743	1099.2759	952.64594	1705.8827	1186.8441	972.6925	1734.0164	1168.7437	1026.6193	1669.299	-1551.5946	1028.1302	1630.3309	-1552.0493	-542.50928	143.94812	-384.70703	-503.61008	144.73839	-382.01889
722	6.0083333	-1038.1837	214.24266	-1644.2227	-1109.2728	203.4133	-1599.6185	-1063.6578	172.77014	-1625.3849	-1054.0953	262.07822	-1634.9502	-1353.0315	235.26645	1003.9902	-1281.3601	227.09534	1052.3616	-1323.1466	194.23683	1020.8144	-1284.4733	287.94424	1052.743	814.1452	187.57199	1209.3226	892.69745	177.91298	1179.7484	844.28943	145.68207	1198.0365	860.70752	292.56024	1167.1466	1115.8539	209.82375	-1401.7449	1056.228	194.19824	-1460.214	1095.0376	162.23724	-1423.9008	1069.917	238.64157	-1425.9147	-1204.5712	1685.9886	-1563.1476	-1129.0864	1688.1902	-1606.0248	-1173.0773	1724.4121	-1582.0092	-1133.5828	1581.1425	-1603.5728	-1239.6466	1699.2551	1119.2302	-1309.3108	1698.8076	1071.7368	-1270.3073	1736.2013	1096.642	-1244.6494	1593.8408	1106.5306	988.89044	1664.26	1162.2842	957.48474	1700.3383	1183.7192	921.75476	1662.2882	1214.7332	939.81342	1659.3954	1159.9353	999.24634	1668.5757	-1579.4932	1058.981	1670.1743	-1518.6466	1025.1132	1708.01	-1551.1364	1059.3525	1672.2406	-1585.6427	-545.11096	141.52452	-348.64545	-539.26727	147.33554	-432.43738	-573.77411	143.81018	-386.63657	-495.16736	142.27811	-383.52838	-541.56891	107.23061	-389.55148																																														-1068.9634	209.55382	-1624.9102	-1074.5306	248.15121	-1624.412	-1321.7632	231.70158	1025.0933	-1320.3334	270.42361	1029.516	848.32733	183.36884	1196.4532	852.4787	222.11308	1194.8257	1088.7573	202.72282	-1428.3158	1082.8135	241.04005	-1432.4943	-1171.8333	1686.9434	-1581.7434	-1170.5394	1647.9658	-1581.4668	-1270.9287	1699.054	1097.9036	-1271.5808	1660.082	1099.2273	952.75067	1705.7765	1186.9503	972.8316	1733.9506	1168.951	1026.6254	1669.3083	-1551.6042	1028.1483	1630.3409	-1552.0753	-542.61395	144.00757	-384.44974	-503.71039	144.25401	-381.71954
